<?xml version="1.0" encoding="UTF-8"?>
<svg version="1.1" xmlns="http://www.w3.org/2000/svg" width="500" height="500">
<path d="M0 0 C36.93495369 -0.06883463 73.86989763 -0.12161399 110.80490262 -0.15319599 C115.17649443 -0.15694761 119.54808611 -0.16083062 123.91967773 -0.16479492 C125.22500322 -0.16597532 125.22500322 -0.16597532 126.55669891 -0.16717956 C140.60264244 -0.18019374 154.64854872 -0.20382532 168.69447023 -0.23145839 C183.13274741 -0.25962408 197.57100523 -0.27619972 212.00930876 -0.28226548 C220.90121359 -0.28635891 229.79301307 -0.29923413 238.68488543 -0.3237494 C244.80234075 -0.33974483 250.9197425 -0.34436956 257.03721715 -0.34050413 C260.55397623 -0.33860376 264.07055271 -0.34128116 267.58727837 -0.35761642 C309.2022226 -0.52214622 349.0219292 6.92187778 382 34 C382.8345874 34.67651611 382.8345874 34.67651611 383.68603516 35.36669922 C401.17725875 49.60755482 414.45914465 66.06499324 425 86 C425.59554688 87.1240625 426.19109375 88.248125 426.8046875 89.40625 C443.19303564 122.32862049 446.9252463 161.40902196 438 197 C437.81808105 197.7523291 437.63616211 198.5046582 437.44873047 199.27978516 C427.85596129 238.05377534 402.20396758 271.81132996 368.6875 293.125 C344.63974796 307.40425062 317.39210681 317.12225765 289.17308044 317.15821838 C288.33234594 317.16315636 287.49161143 317.16809434 286.62540013 317.17318195 C283.83417157 317.18842734 281.04296577 317.19688206 278.25170898 317.20532227 C276.24055281 317.214911 274.22939861 317.22492166 272.21824646 317.23532104 C266.77681687 317.2622683 261.3353787 317.28333275 255.89391971 317.30332303 C250.20042799 317.32524564 244.50696241 317.35260353 238.81349182 317.37937927 C228.04026863 317.42922152 217.26703086 317.47419165 206.49377924 317.51740164 C194.22534651 317.56684653 181.95694003 317.62173769 169.68853271 317.67708123 C144.45904631 317.79077123 119.22953472 317.89763837 94 318 C94.3650061 318.44802979 94.73001221 318.89605957 95.1060791 319.35766602 C96.79008909 321.4254402 98.47317383 323.49396567 100.15625 325.5625 C100.73020508 326.26697266 101.30416016 326.97144531 101.89550781 327.69726562 C105.47464703 332.09768041 109.01120116 336.52766235 112.5 341 C116.98513061 346.73898395 121.56039797 352.398826 126.16625977 358.04125977 C129.63893482 362.30310909 133.05826306 366.60131101 136.4375 370.9375 C141.12065104 376.94295251 145.95081655 382.81850309 150.80834961 388.68334961 C154.89251734 393.62534335 158.87891521 398.63225604 162.81640625 403.69140625 C166.46486182 408.3610039 170.22055701 412.93604788 174 417.5 C178.48333909 422.922313 182.94067035 428.36218685 187.3125 433.875 C188.00569336 434.7402832 188.00569336 434.7402832 188.71289062 435.62304688 C190.65184078 438.08459309 191.99986835 439.99960505 193 443 C182.5517146 443.39592602 172.10524326 443.69693166 161.65095329 443.88080692 C156.7946971 443.96912106 151.94361115 444.08859024 147.09033203 444.2824707 C113.07714403 445.6063055 113.07714403 445.6063055 105.4543457 439.38842773 C102.28726971 435.9818998 100.06079058 432.34125265 98.08634949 428.14607239 C96.3427649 424.70163873 93.9031352 421.88395128 91.4375 418.9375 C90.54432981 417.80119064 89.65453737 416.66221061 88.76953125 415.51953125 C83.61077311 408.93510695 78.28915589 402.47968101 73 396 C66.31902989 387.81522419 59.6663024 379.6159627 53.16357422 371.28857422 C49.12065899 366.12351988 44.98138149 361.03982866 40.83374023 355.95874023 C37.36106518 351.69689091 33.94173694 347.39868899 30.5625 343.0625 C25.88864397 337.06896698 21.06900967 331.20428204 16.22021484 325.35180664 C11.38269277 319.49949006 6.67501404 313.55408461 2.01171875 307.5625 C0.23839123 305.19854243 0.23839123 305.19854243 -1 304 C-1.09333705 302.40389018 -1.11745372 300.80366572 -1.11352539 299.20483398 C-1.11340454 298.16951538 -1.11328369 297.13419678 -1.11315918 296.06750488 C-1.10804321 294.97143921 -1.10292725 293.87537354 -1.09765625 292.74609375 C-1.09664917 291.74453247 -1.09564209 290.74297119 -1.09460449 289.71105957 C-1.08935429 285.95319481 -1.07539317 282.19534631 -1.0625 278.4375 C-1.041875 270.043125 -1.02125 261.64875 -1 253 C25.4 252.67 51.8 252.34 79 252 C74.38 246.39 69.76 240.78 65 235 C59.4375 227.9375 59.4375 227.9375 56.77734375 224.52734375 C53.73516212 220.64382417 50.61952027 216.82148088 47.5 213 C43.46789171 208.06057874 39.48189147 203.09180764 35.5625 198.0625 C31.46061738 192.80243876 27.25409363 187.63760516 23 182.5 C18.60652245 177.19188847 14.25508975 171.85739085 10 166.4375 C9.57976563 165.90253906 9.15953125 165.36757812 8.7265625 164.81640625 C-2.91713535 149.90950646 -1 150.97890375 -1 127 C32 126.67 65 126.34 99 126 C94.71 120.72 90.42 115.44 86 110 C80.5 103 80.5 103 77.8125 99.5625 C74.75455557 95.67057072 71.62936531 91.83457439 68.5 88 C64.45024041 83.03761852 60.44214704 78.04831033 56.5 73 C50.44086455 65.24563103 44.2226712 57.62331935 38 50 C31.32574659 41.82345274 24.66710293 33.64122441 18.18554688 25.31054688 C15.65670904 22.07082051 13.08360909 18.87535513 10.4609375 15.7109375 C9.86474609 14.9890625 9.26855469 14.2671875 8.65429688 13.5234375 C7.49213599 12.1201697 6.32439109 10.72150268 5.15039062 9.328125 C4.62380859 8.69132812 4.09722656 8.05453125 3.5546875 7.3984375 C3.08530762 6.83817871 2.61592773 6.27791992 2.13232422 5.70068359 C0.87474245 3.81187061 0.49786601 2.19652182 0 0 Z M133 64 C134.33809728 66.74793409 135.7002411 69.04208933 137.65234375 71.3984375 C138.17562256 72.03515381 138.69890137 72.67187012 139.23803711 73.32788086 C139.79885986 74.00343018 140.35968262 74.67897949 140.9375 75.375 C142.12596555 76.82082144 143.31345009 78.26744978 144.5 79.71484375 C145.09296875 80.43784668 145.6859375 81.16084961 146.296875 81.90576172 C148.71897621 84.88408514 151.08096437 87.90722725 153.4375 90.9375 C158.1043685 96.92778309 162.91383692 102.79259476 167.79077148 108.61303711 C168.60976929 109.59735718 168.60976929 109.59735718 169.4453125 110.6015625 C170.02643799 111.27574219 170.60756348 111.94992188 171.20629883 112.64453125 C173 115 173 115 174.67456055 118.16796875 C178.17373114 124.30253487 178.17373114 124.30253487 184.1829834 127.61724854 C190.63134896 128.50546413 197.0858968 128.09214799 203.5625 127.75 C205.54476031 127.68974006 207.52719653 127.63499885 209.50976562 127.5859375 C214.34421834 127.45434143 219.17016255 127.24773283 224 127 C224.27078369 127.58539551 224.54156738 128.17079102 224.82055664 128.77392578 C225.99171762 130.98436788 227.26470859 132.70568891 228.87109375 134.6171875 C229.43997314 135.29958496 230.00885254 135.98198242 230.5949707 136.68505859 C231.20300537 137.40773926 231.81104004 138.13041992 232.4375 138.875 C236.97199352 144.31825756 241.45851062 149.78608656 245.8125 155.375 C250.45380398 161.32414849 255.20742524 167.17180577 260 173 C262.33732418 175.85092225 264.6696074 178.70591022 267 181.5625 C267.57669434 182.26616699 268.15338867 182.96983398 268.74755859 183.69482422 C269.28461426 184.35369629 269.82166992 185.01256836 270.375 185.69140625 C271.09816406 186.57614624 271.09816406 186.57614624 271.8359375 187.47875977 C273 189 273 189 274 191 C220.87 191 167.74 191 113 191 C116.73157394 195.97543193 120.46591301 200.92850443 124.3125 205.8125 C124.7883252 206.41723145 125.26415039 207.02196289 125.75439453 207.64501953 C130.10065563 213.15377106 134.54315985 218.58048237 139 224 C141.14985092 226.6217351 143.29455536 229.2476181 145.4375 231.875 C145.93878418 232.48649902 146.44006836 233.09799805 146.95654297 233.72802734 C147.46459473 234.3514502 147.97264648 234.97487305 148.49609375 235.6171875 C149.05167969 236.27404541 149.60726562 236.93090332 150.1796875 237.60766602 C152 240 152 240 153.9296875 243.37475586 C157.79659004 249.89551551 157.79659004 249.89551551 164.11581421 253.67285156 C170.10970965 254.61590299 176.09745516 254.18691204 182.125 253.8125 C183.9581274 253.74719322 185.79147924 253.68789457 187.625 253.63476562 C192.08893445 253.49243228 196.54196689 253.26880534 201 253 C199.68634784 250.17661664 198.22203388 247.86065127 196.2421875 245.4609375 C195.70335937 244.80351562 195.16453125 244.14609375 194.609375 243.46875 C194.03703125 242.7778125 193.4646875 242.086875 192.875 241.375 C191.68461697 239.92470801 190.49451167 238.47418802 189.3046875 237.0234375 C188.73073242 236.32573242 188.15677734 235.62802734 187.56542969 234.90917969 C185.69006406 232.62200576 183.84091434 230.31496953 182 228 C178.44564875 223.53885322 174.8487726 219.11280389 171.25 214.6875 C170.64800781 213.94693359 170.04601562 213.20636719 169.42578125 212.44335938 C167.95069274 210.62876637 166.47542781 208.81431712 165 207 C175.50055507 206.67448886 185.99989626 206.426314 196.50448322 206.27462959 C201.38347314 206.20179358 206.25899367 206.10317088 211.13598633 205.94384766 C215.85014083 205.79082198 220.56097817 205.70784761 225.27742577 205.6717186 C227.06911645 205.64600432 228.86064094 205.5957792 230.6509037 205.51977921 C244.29116025 204.96417817 244.29116025 204.96417817 248.82349777 208.37044525 C252.10345304 211.67027197 254.61326289 215.37250807 256.98955631 219.35567665 C258.32082503 221.52208756 259.88583306 223.44059092 261.53125 225.375 C262.0264917 225.98069824 262.5217334 226.58639648 263.03198242 227.21044922 C263.51642822 227.80100098 264.00087402 228.39155273 264.5 229 C269.26398395 234.83119109 273.95492623 240.71363038 278.57421875 246.66015625 C280.30502212 248.88170569 282.0062969 251.0062969 284 253 C286.46097358 253.09103478 288.74208866 253.05024493 291.1875 252.875 C291.9000293 252.82569336 292.61255859 252.77638672 293.34667969 252.72558594 C315.72840332 250.8382088 335.10076804 240.41134939 351 225 C351.61101562 224.46246094 352.22203125 223.92492187 352.8515625 223.37109375 C368.51046949 209.106473 377.33171833 185.25358609 378.34375 164.49609375 C378.88804609 144.17337296 374.85157546 123.90045289 363 107 C361.92105469 105.46085937 361.92105469 105.46085937 360.8203125 103.890625 C345.93707468 83.33917428 324.70049355 69.84086872 299.56692505 65.3923645 C283.93833004 63.38607047 268.20735441 63.74189567 252.48168707 63.79721212 C248.26970927 63.80985969 244.0577275 63.81090088 239.84573364 63.81326294 C231.89896314 63.81943704 223.95224879 63.83579173 216.00550282 63.85596192 C206.9460154 63.87844893 197.88652505 63.88934628 188.82701659 63.89935279 C170.21797943 63.9201624 151.60899426 63.9552577 133 64 Z " fill="#E6DDD5" transform="translate(29,28)"/>
<path d="M0 0 C1.73520783 1.93790468 3.27036478 3.85305095 4.8125 5.9375 C5.79612701 7.22942801 6.78190403 8.51972116 7.76953125 9.80859375 C8.29240723 10.4929248 8.8152832 11.17725586 9.35400391 11.88232422 C12.15608783 15.48737849 15.08117474 18.98933737 18 22.5 C22.8116827 28.30713556 27.53296941 34.17225506 32.17236328 40.11767578 C35.57515461 44.47440345 39.05120943 48.76517612 42.5625 53.03515625 C49.60553329 61.6019227 56.61779655 70.19147631 63.4375 78.9375 C67.53955153 84.19744949 71.7461912 89.36214077 76 94.5 C80.48327672 99.92236637 84.94066901 105.36218515 89.3125 110.875 C89.77462891 111.45185547 90.23675781 112.02871094 90.71289062 112.62304688 C92.65184078 115.08459309 93.99986835 116.99960505 95 120 C84.5517146 120.39592602 74.10524326 120.69693166 63.65095329 120.88080692 C58.7946971 120.96912106 53.94361115 121.08859024 49.09033203 121.2824707 C15.07714403 122.6063055 15.07714403 122.6063055 7.4543457 116.38842773 C4.28726971 112.9818998 2.06079058 109.34125265 0.08634949 105.14607239 C-1.6572351 101.70163873 -4.0968648 98.88395128 -6.5625 95.9375 C-7.45567019 94.80119064 -8.34546263 93.66221061 -9.23046875 92.51953125 C-14.38922689 85.93510695 -19.71084411 79.47968101 -25 73 C-31.68097011 64.81522419 -38.3336976 56.6159627 -44.83642578 48.28857422 C-48.33794661 43.81518205 -51.90863512 39.40146702 -55.5 35 C-59.75862806 29.77324256 -64.00037002 24.53429238 -68.1875 19.25 C-68.64511719 18.67765625 -69.10273438 18.1053125 -69.57421875 17.515625 C-71.73304265 14.77760445 -73.50438424 12.14218456 -75 9 C-73.94312988 8.95512451 -72.88625977 8.91024902 -71.79736328 8.86401367 C-67.78216849 8.6905446 -63.76776235 8.50237125 -59.75341797 8.31030273 C-58.03354176 8.22994812 -56.31348728 8.15330221 -54.59326172 8.08081055 C-38.71029375 7.40701583 -23.45052603 5.42555904 -8.07226562 1.27539062 C-5.27560036 0.53551698 -2.91094624 0 0 0 Z " fill="#E6DDD5" transform="translate(370,351)"/>
<path d="M0 0 C10.63095054 -0.32548729 21.26070254 -0.57367477 31.89563465 -0.72537041 C36.83513593 -0.79821104 41.77121122 -0.89684414 46.70874023 -1.05615234 C51.48124529 -1.20915861 56.25047424 -1.29214893 61.02524376 -1.3282814 C62.83925656 -1.35399888 64.65310489 -1.40423004 66.46570778 -1.48022079 C80.27760665 -2.03582079 80.27760665 -2.03582079 84.83262253 1.37044525 C88.11761202 4.66687087 90.62316355 8.36769736 92.9930706 12.3556633 C94.32093652 14.52409603 95.88539898 16.44114615 97.53125 18.375 C98.02560547 18.97957031 98.51996094 19.58414062 99.02929688 20.20703125 C99.51462891 20.79871094 99.99996094 21.39039063 100.5 22 C105.0089612 27.52227115 109.44844804 33.09187206 113.8359375 38.7109375 C117.87919062 43.87601807 122.01847247 48.95999243 126.16625977 54.04125977 C129.63893578 58.30311027 133.05821709 62.60134579 136.4375 66.9375 C141.18817438 73.02833321 146.08216688 78.99396603 151.00390625 84.94702148 C155.39156155 90.25464941 159.73397939 95.59384026 164 101 C164.67160156 101.84691406 165.34320313 102.69382812 166.03515625 103.56640625 C166.68355469 104.39011719 167.33195313 105.21382813 168 106.0625 C168.5775 106.79597656 169.155 107.52945313 169.75 108.28515625 C171 110 171 110 171 111 C160.44707836 111.20891298 149.89465179 111.36863637 139.34008026 111.46630955 C134.43854015 111.51319911 129.53841884 111.5767501 124.63769531 111.67895508 C119.90430357 111.77704784 115.17227251 111.83061954 110.4379425 111.85389519 C108.63571251 111.87047205 106.83355361 111.90284591 105.03190613 111.95157051 C90.92362014 112.31780142 90.92362014 112.31780142 86.15945435 109.05404663 C84.12732049 106.79708632 82.55600333 104.60003759 81 102 C80.11708865 100.87307786 79.2198941 99.7571055 78.3046875 98.65625 C77.50289063 97.6146875 76.70109375 96.573125 75.875 95.5 C71.67630073 90.08714695 67.37162876 84.77403192 63 79.5 C58.18925961 73.69206251 53.46705294 67.82777358 48.82763672 61.88232422 C45.42484539 57.52559655 41.94879057 53.23482388 38.4375 48.96484375 C30.90335219 39.80071204 23.41960665 30.59920239 16.1184082 21.24804688 C13.65049915 18.08984848 11.16261663 14.94967008 8.6484375 11.828125 C7.81421265 10.7918396 7.81421265 10.7918396 6.96313477 9.73461914 C5.87974423 8.39099694 4.79435809 7.04898089 3.70678711 5.70874023 C0 1.10961269 0 1.10961269 0 0 Z " fill="#E6DDD5" transform="translate(173,360)"/>
</svg>
